<svg xmlns="http://www.w3.org/2000/svg" width="100" height="100" viewBox="0 0 100 100">
  <g transform="translate(5, 5) scale(0.9)">
    <path d="M17.911 10.141c.137 0 .272-.01.404-.027l3.974 16.154.13.524.194.504S25.44 34.564 45 34.564s22.385-7.268 22.385-7.268a10.18 10.18 0 0 0 .305-.963l4.006-16.266a2.98 2.98 0 0 0 3.643-2.899 2.98 2.98 0 0 0-2.975-2.976 2.98 2.98 0 0 0-2.978 2.976 2.97 2.97 0 0 0 .565 1.743l-6.939 5.457a.35.35 0 0 1-.587-.154l-3.24-8.776c-.097-.261-.337-.309-.536-.103l-7.29 7.543c-.199.204-.475.172-.614-.073l-4.167-7.311a2.97 2.97 0 0 0 1.393-2.52C47.971 1.331 46.64 0 44.998 0s-2.976 1.332-2.976 2.975c0 1.062.556 1.992 1.392 2.52l-4.165 7.311c-.139.245-.415.277-.613.073l-7.29-7.543c-.198-.205-.438-.157-.536.103l-3.241 8.776c-.096.262-.359.332-.586.154l-6.767-5.321a2.96 2.96 0 0 0 .668-1.878 2.98 2.98 0 0 0-2.975-2.976 2.98 2.98 0 0 0-2.976 2.976 2.98 2.98 0 0 0 2.979 2.971zm72.002 62.471l-6.934-11.515c-.145-.24-.127-.625.043-.85l4.364-5.916c.17-.228.188-.61.043-.85L74.735 32.318a1.91 1.91 0 0 0-.743-.656l-4.769-2.147c-.265-.121-.632-.043-.816.173 0 0-1.636 1.895-3.667 3.064-4.423 2.547-11.066 3.902-19.741 3.902-8.656 0-15.316-1.385-19.794-3.99-1.846-1.074-3.588-2.989-3.588-2.989a.77.77 0 0 0-.828-.166l-4.782 2.154a1.94 1.94 0 0 0-.744.656L2.572 53.482a.83.83 0 0 0 .042.85l4.365 5.916a.83.83 0 0 1 .042.85L.089 72.613a.74.74 0 0 0 .08.819l22.157 24.865c.188.214.562.293.829.182l4.7-1.982c.267-.113.486.022.486.3v4.629a.88.88 0 0 0 .477.726l15.705 7.315a1.31 1.31 0 0 0 .955 0l15.705-7.315a.88.88 0 0 0 .477-.726v-4.629c0-.279.22-.413.487-.3l4.699 1.982a.79.79 0 0 0 .831-.182l22.155-24.865c.188-.21.224-.581.081-.821zM32.118 89.131l-4.801-5.101a.53.53 0 0 1 .122-.728l7.639-7.233c.231-.171.635-.209.897-.084l7.756 3.651c.263.125.477.452.477.731v6.961c0 .279-.237.539-.527.582l-10.739 1.564c-.29.042-.661-.11-.826-.342zm22.293 6.005c0 .277-.223.587-.497.685l-8.417 3.023c-.274.096-.722.096-.997 0l-8.418-3.023c-.273-.098-.497-.408-.497-.685v-3.772c0-.282.237-.54.527-.582l3.62-.529c.698 1.497 2.429 3.492 5.267 3.492s4.568-1.994 5.266-3.492l3.621.529c.287.041.524.3.524.582v3.772zm8.272-11.108l-4.801 5.101a.94.94 0 0 1-.824.341l-10.74-1.564c-.289-.043-.527-.303-.527-.582v-6.961c0-.279.214-.605.479-.726l7.766-3.651c.261-.123.663-.081.896.086l7.631 7.226c.23.175.285.502.121.73zm9.829-26.063l-6.023 6.58c-.192.209-.219.57-.058.802l4.997 7.259a.84.84 0 0 1 .016.853l-5.22 8.184a.48.48 0 0 1-.696.125l-9.702-7.144c-.231-.171-.42-.536-.417-.812l.078-8.971c.001-.277.22-.603.482-.726l9.774-4.559c.262-.121.364-.423.23-.668l-2.131-3.834a.49.49 0 0 0-.694-.169l-10.317 6.383a1.03 1.03 0 0 0-.443.781v10.264c0 .277-.233.567-.513.641l-6.362 1.692c-.282.076-.743.076-1.025 0l-6.361-1.692c-.282-.075-.513-.365-.513-.641v-10.26c0-.277-.201-.63-.445-.781l-10.317-6.383a.49.49 0 0 0-.694.169l-2.131 3.834c-.137.245-.033.548.23.668l9.773 4.559c.263.123.48.449.482.726l.078 8.971a1.14 1.14 0 0 1-.416.812l-9.703 7.145c-.231.169-.544.113-.695-.125l-5.222-8.184a.84.84 0 0 1 .016-.853l4.998-7.259a.68.68 0 0 0-.058-.802l-6.023-6.58a.72.72 0 0 1-.078-.816l5.001-8.021c.149-.239.474-.314.723-.166l14.355 8.477c.249.146.452.038.452-.239v-2.439c0-.278-.173-.661-.385-.853l-11.137-10.03a.61.61 0 0 1-.098-.771l.204-.3c.159-.234.509-.333.778-.224l17.212 7.081a1.49 1.49 0 0 0 .976 0l17.21-7.083a.67.67 0 0 1 .776.224l.205.3a.61.61 0 0 1-.098.771l-11.137 10.03a1.32 1.32 0 0 0-.385.853v2.439c0 .278.204.385.452.239l14.355-8.477c.249-.148.575-.073.722.166l5.001 8.021a.72.72 0 0 1-.079.815z" fill="#7f46f0"/>
  </g>
</svg>